<?xml version="1.0" encoding="UTF-8"?><svg xmlns="http://www.w3.org/2000/svg" xmlns:xlink="http://www.w3.org/1999/xlink" height="384.6" preserveAspectRatio="xMidYMid meet" version="1.0" viewBox="0.0 -0.0 613.3 384.6" width="613.3" zoomAndPan="magnify"><g id="change1_1"><path d="M526.506,108.73c1.174-9.27-0.453-19.897-11.031-26.604c-20.096-12.739-42.443-2.704-45.863-1.027 c-2.945-1.179-8.612-1.866-11.797,3.069c-3.319,5.143,0.254,10.7,1.52,12.388c-2.088,5.117-0.915,8.568,1.101,10.327 c0.001,0.053,0,0.106,0.001,0.159c-53.286,13.427-92.853,61.742-92.853,119.137c0,1.886,0.058,3.758,0.143,5.624l-6.308,6.308 c-5.489-3.605-11.527-6.103-17.971-7.439V214.33c0-0.561-0.454-1.015-1.015-1.015h-19.347c-0.561,0-1.015,0.454-1.015,1.015v16.341 c-6.444,1.336-12.482,3.834-17.97,7.439l-11.551-11.551c-0.396-0.396-1.038-0.396-1.435,0l-13.68,13.679 c-0.19,0.19-0.297,0.448-0.297,0.717s0.107,0.527,0.297,0.717l3.919,3.919H180.082l0.001-72.762l24.278,8.287 c0.412,0.162,17.272,6.78,30.885,9.048c1.667,0.278,3.324,0.409,4.963,0.409c12.737-0.001,24.266-7.939,28.799-16.753 c6.834-13.288,11.885-54.954,11.961-64.065c2.214-1.035,9.852-4.751,13.87-8.506c3.46-3.233,4.633-6.276,3.805-9.866 c-0.459-1.988-1.581-2.955-2.426-3.413c0.22-1.094,0.359-2.946-0.604-4.684c-0.839-1.515-2.102-2.162-3.103-2.436 c0.366-1.09,0.592-2.706-0.251-4.445c-0.94-1.941-2.477-2.667-3.528-2.939c0.064-1.466-0.245-4.078-2.892-5.722 c-3.924-2.435-17.966,5.628-22.971,8.657c-0.592-2.598-1.951-8.131-3.382-11.025c-1.651-3.335-4.568-4.431-6.742-4.034 c-1.819,0.333-3.102,1.658-3.269,3.374c-0.189,1.943,0.336,7.936,0.891,14.281c0.386,4.406,0.786,8.962,0.936,12.108 c0.376,7.812,1.109,12.651,1.305,13.846l-15.254,39.534l-15.85-7.246c-0.478-0.264-19.88-11.011-38.219-21.691 c-20.07-11.688-33.851-15.288-36.417-15.894l-8.396-12.828v-2.591c3.441-1.383,6.5-3.573,8.931-6.466 c1.606-1.912,2.678-3.931,3.392-5.991c5.707-2.515,9.706-8.218,9.706-14.845c0-6.197-3.495-11.587-8.615-14.318 c0.169-0.855,0.351-1.743,0.541-2.665c0.678-3.3,1.446-7.04,1.935-10.89c0.296-2.331,0.899-10.319-3.81-15.213 c-0.531-0.552-1.128-1.066-1.745-1.566c-3.178-6.706-8.074-11.337-21.394-12.165c-1.969-0.122-4.066-0.156-6.209-0.059 c-0.005,0-0.008-0.003-0.013-0.003c-0.757,0.019-18.667,0.586-28.387,11.096c-6.346,6.862-6.097,19.252-3.821,30.227 c-6.727,1.978-11.655,8.198-11.655,15.556c0,8.945,7.277,16.222,16.222,16.222c2.435,0,4.737-0.554,6.812-1.52v10.491l-10.574,12.77 c-3.529,0.755-29.792,6.896-42.096,24.631c-5.19,7.48-18.277,28.405-27.709,61.095c0,0,0,0,0,0.001 c-0.066,0.226-0.191,0.606-0.361,1.123c-8.232,25.185-7.978,41.874,0.733,48.267c8.01,5.877,27.709,10.363,46.125,13.449 l-0.076,1.954c-0.002,0.062,0.019,0.117,0.027,0.176H6.338c-3.5,0-6.338,2.838-6.338,6.338s2.838,6.338,6.338,6.338h113.97 l-2.09,10.274c-12.038,1.482-21.677,10.366-24.108,22.319c-2.316,11.382,2.492,22.838,12.247,29.185 c0.279,0.182,0.633,0.216,0.945,0.085c0.309-0.129,0.535-0.404,0.601-0.733l5.025-24.711c0.476-2.338,1.834-4.352,3.824-5.669 c1.989-1.316,4.37-1.783,6.712-1.304c4.827,0.981,7.955,5.707,6.974,10.534l-5.025,24.711c-0.067,0.329,0.033,0.67,0.268,0.91 c0.192,0.198,0.455,0.307,0.726,0.307c0.058,0,0.118-0.006,0.177-0.016c11.459-2.031,20.359-10.699,22.674-22.083 c2.431-11.955-2.972-23.898-13.476-29.964l2.816-13.845h147.504c-2.07,4.082-3.617,8.398-4.556,12.927h-16.341 c-0.561,0-1.015,0.454-1.015,1.015v19.345c0,0.561,0.454,1.015,1.015,1.015h16.341c1.335,6.44,3.834,12.478,7.439,17.971 l-11.551,11.551c-0.396,0.396-0.396,1.038,0,1.435l13.68,13.681c0.19,0.19,0.448,0.297,0.717,0.297s0.527-0.107,0.717-0.297 l11.551-11.551c5.49,3.603,11.526,6.101,17.97,7.437v16.342c0,0.561,0.454,1.015,1.015,1.015h19.347 c0.561,0,1.015-0.454,1.015-1.015v-16.342c6.444-1.336,12.48-3.834,17.971-7.437l11.551,11.551c0.38,0.38,1.054,0.38,1.435,0 l13.679-13.681c0.396-0.396,0.396-1.038,0-1.435l-11.551-11.551c3.605-5.493,6.103-11.531,7.439-17.971h3.177 c10.922,16.933,25.876,31.021,43.512,40.888c0.049,0.042,0.079,0.102,0.137,0.134c3.782,2.106,7.676,3.992,11.653,5.679 c0.181,0.077,0.363,0.152,0.545,0.228c1.616,0.676,3.244,1.324,4.887,1.93c0.161,0.059,0.319,0.124,0.48,0.183 c1.561,0.568,3.137,1.096,4.72,1.6c0.613,0.195,1.228,0.386,1.844,0.572c1.207,0.364,2.42,0.709,3.638,1.035 c0.908,0.244,1.82,0.474,2.734,0.697c1.026,0.25,2.054,0.49,3.086,0.714c0.772,0.167,1.544,0.332,2.319,0.485 c1.469,0.289,2.943,0.557,4.423,0.792c0.658,0.105,1.319,0.191,1.978,0.285c1.204,0.172,2.411,0.325,3.62,0.461 c0.564,0.063,1.126,0.134,1.691,0.189c1.697,0.167,3.399,0.293,5.103,0.389c0.46,0.026,0.92,0.045,1.38,0.066 c1.845,0.084,3.692,0.141,5.543,0.141c1.881,0,3.755-0.058,5.626-0.143c0.525-0.024,1.05-0.055,1.574-0.085 c1.494-0.087,2.984-0.2,4.469-0.341c0.401-0.038,0.804-0.067,1.205-0.109c1.829-0.191,3.651-0.424,5.465-0.697 c0.387-0.058,0.772-0.128,1.159-0.19c1.501-0.24,2.997-0.508,4.486-0.803c0.428-0.085,0.856-0.169,1.284-0.258 c3.71-0.777,7.376-1.725,10.992-2.841c0.192-0.059,0.383-0.122,0.575-0.182c1.794-0.563,3.576-1.165,5.342-1.811 c0.011-0.004,0.023-0.008,0.034-0.012c8.681-3.177,17.02-7.331,24.854-12.448c0.073-0.048,0.114-0.125,0.171-0.189 c33.464-21.973,55.621-59.813,55.621-102.751C613.3,170.979,576.706,124.176,526.506,108.73z M67.934,206.118l-6.736-1.697 l2.513-9.083l5.282-16.447L67.934,206.118z M332.759,301.698c-10.925,0-19.814-8.89-19.814-19.816 c0-10.925,8.89-19.814,19.814-19.814c10.927,0,19.816,8.89,19.816,19.814C352.575,292.808,343.685,301.698,332.759,301.698z M282.206,340.496l-12.918-5.568c1.122-5.533,1.201-11.147,0.235-16.713l13.077-5.2c0.521-0.208,0.775-0.797,0.569-1.318 l-6.203-15.601c-0.208-0.521-0.8-0.771-1.318-0.569l-13.076,5.198c-3.123-4.712-7.035-8.739-11.646-11.989l5.568-12.918 c0.222-0.515-0.015-1.112-0.53-1.334l-15.418-6.646c-0.246-0.107-0.527-0.111-0.776-0.012c-0.251,0.099-0.451,0.295-0.557,0.541 l-5.569,12.92c-5.527-1.12-11.143-1.201-16.713-0.236l-5.198-13.077c-0.1-0.25-0.294-0.45-0.542-0.557 c-0.247-0.107-0.526-0.111-0.776-0.012l-15.601,6.203c-0.521,0.208-0.775,0.797-0.569,1.318l5.198,13.077 c-4.708,3.119-8.736,7.033-11.99,11.646l-12.918-5.568c-0.517-0.228-1.111,0.016-1.333,0.529l-6.646,15.417 c-0.222,0.515,0.015,1.112,0.53,1.334l12.918,5.57c-1.122,5.531-1.201,11.145-0.236,16.713l-13.076,5.198 c-0.521,0.208-0.775,0.797-0.569,1.318l6.202,15.601c0.207,0.521,0.797,0.769,1.318,0.569l13.077-5.198 c3.122,4.71,7.034,8.739,11.647,11.991l-5.569,12.916c-0.107,0.248-0.111,0.527-0.012,0.777c0.1,0.25,0.294,0.45,0.542,0.557 l15.418,6.646c0.509,0.222,1.111-0.016,1.333-0.529l5.569-12.918c5.532,1.12,11.145,1.197,16.713,0.234l5.198,13.077 c0.1,0.25,0.294,0.45,0.542,0.557c0.128,0.055,0.265,0.083,0.401,0.083c0.127,0,0.255-0.024,0.375-0.071l15.601-6.203 c0.521-0.208,0.775-0.797,0.569-1.318l-5.198-13.077c4.71-3.121,8.738-7.033,11.99-11.646l12.918,5.568 c0.511,0.224,1.11-0.016,1.333-0.529l6.646-15.417c0.107-0.248,0.111-0.527,0.012-0.777 C282.648,340.803,282.454,340.603,282.206,340.496z M230.949,341.784c-8.746,3.482-18.683-0.81-22.159-9.551 c-1.684-4.235-1.617-8.874,0.187-13.059c1.804-4.185,5.13-7.417,9.365-9.1c2.041-0.812,4.175-1.217,6.307-1.217 c2.293,0,4.583,0.468,6.751,1.403c4.184,1.803,7.416,5.13,9.1,9.365C243.977,328.367,239.692,338.309,230.949,341.784z" fill="#fff"/></g><g id="change2_1"><path d="M72.706,244.461c5.196,0.801,10.151,1.484,14.57,2.049c-11.787-0.017-19.791-0.032-19.94-0.044 c-0.481-0.039-0.84-0.413-0.904-0.875c-0.008-0.059-0.03-0.114-0.027-0.176l0.076-1.954c0.676,0.113,1.346,0.222,2.017,0.332 C69.914,244.024,71.317,244.247,72.706,244.461z M221.989,138.512l-0.39,1.002l-15.577,40.068l-0.369,0.949 c-0.197,0.508-0.755,0.769-1.273,0.592l-0.019-0.007l-24.278-8.287l-0.001,72.762v0.001c0,0.27-0.107,0.527-0.297,0.717 s-0.449,0.297-0.717,0.297h-0.001c-6.822-0.006-17.687-0.015-30.017-0.027c0.118-0.2,0.231-0.405,0.316-0.629 c0.182-0.481,0.289-0.949,0.352-1.4c0.2-1.427-0.106-2.669-0.413-3.473c1.23-0.773,3.297-2.447,3.518-5.067 c0.208-2.465-0.917-4.021-1.755-4.821c0.599-1.098,1.361-3.155,0.683-5.802c-0.787-3.069-3.866-5.407-5.185-6.292l2.867-14.097 c12.038-1.482,21.678-10.366,24.108-22.319c2.317-11.382-2.491-22.839-12.246-29.185c-0.28-0.185-0.637-0.219-0.945-0.085 c-0.309,0.129-0.535,0.404-0.601,0.733l-5.025,24.71c-0.983,4.827-5.712,7.954-10.535,6.975c-2.338-0.477-4.352-1.834-5.669-3.825 c-1.317-1.99-1.78-4.373-1.305-6.712l5.025-24.71c0.067-0.329-0.033-0.67-0.268-0.911c-0.233-0.24-0.566-0.351-0.904-0.29 c-11.459,2.031-20.359,10.699-22.674,22.083c-2.431,11.953,2.971,23.896,13.475,29.962l-2.688,13.217 c-8.696-1.266-17.568,1.457-19.317,2.037l-39.918-10.055l-2.011-0.507l1.06-27.226l-5.282,16.447l0.005-0.019c0,0,0-0.001,0-0.002 l7.363-24.441l4.335-14.39c0.162-0.536-0.142-1.102-0.679-1.263c-0.538-0.164-1.103,0.143-1.263,0.679l-11.402,37.848l-0.293,0.972 l-39.861-13.487c0.003-0.01,0.009-0.027,0.012-0.037c0.16-0.537-0.148-1.102-0.685-1.261c-0.538-0.161-1.101,0.148-1.261,0.684 c9.432-32.69,22.519-53.615,27.709-61.095c12.304-17.735,38.567-23.876,42.096-24.631l10.574-12.77l0.233-0.281 c0.316-0.381,0.861-0.479,1.29-0.231l0.506,0.293l25.337,14.668l8.715-9.831l0.256-0.288c0.209-0.237,0.519-0.363,0.833-0.339 c0.315,0.023,0.601,0.191,0.775,0.456l0.165,0.253l8.396,12.828c2.566,0.605,16.347,4.206,36.417,15.894 c18.339,10.68,37.74,21.426,38.219,21.691c0.004,0.002,0.029,0.016,0.031,0.017C221.979,137.502,222.174,138.038,221.989,138.512z M146.879,101.752l0.316-0.843c0.196-0.524-0.069-1.109-0.594-1.306c-0.521-0.195-1.11,0.067-1.306,0.594l-0.18,0.481l-3.971,10.594 L129.292,97.87l-0.595-0.673c-0.228-0.259-0.571-0.381-0.915-0.331c-0.342,0.053-0.632,0.275-0.773,0.591l-0.37,0.833l-6.999,15.756 l-27.798-18.45l-0.94-0.624c-0.468-0.312-1.098-0.182-1.406,0.284c-0.31,0.467-0.182,1.096,0.284,1.406l0.357,0.237l29.382,19.502 c0.167,0.112,0.364,0.169,0.561,0.169c0.095,0,0.19-0.013,0.283-0.041c0.287-0.083,0.522-0.289,0.644-0.562l7.215-16.244 l12.517,14.157c0.235,0.267,0.594,0.391,0.944,0.326c0.35-0.064,0.641-0.308,0.766-0.642L146.879,101.752z M130.459,81.564 c3.702,0,6.714-2.432,6.714-5.423c0-0.748-0.188-1.46-0.529-2.109c-0.313-0.596-0.766-1.129-1.307-1.594 c-1.225-1.053-2.952-1.721-4.878-1.721c-0.749,0-1.458,0.123-2.132,0.307c-0.726,0.198-1.391,0.489-1.982,0.863 c-1.538,0.973-2.546,2.46-2.587,4.149c-0.001,0.036-0.013,0.069-0.013,0.105c0,0.691,0.176,1.346,0.469,1.954 C125.189,80.12,127.612,81.564,130.459,81.564z M557.922,326.364l-1.528-63.285c-0.717-0.425-1.408-0.891-2.065-1.406 c-2.02-1.587-3.746-3.59-5.085-5.974c-10.546-18.766-31.956-62.998-39.987-79.708c-5.667,3.621-13.481,5.569-21.805,5.569 c-4.045,0-8.2-0.454-12.28-1.39c-9.706-2.227-14.185-7.269-15.535-9.103c-0.28-0.38-0.435-0.632-0.464-0.682 c-0.283-0.483-0.123-1.101,0.359-1.386c0.48-0.283,1.102-0.124,1.389,0.355c0.01,0.016,0.267,0.434,0.818,1.087 c1.624,1.923,5.818,5.9,13.888,7.752c12.075,2.769,24.797,1.175,32.753-4.031c-0.846-1.763-1.483-3.093-1.859-3.881 c-0.14-0.293-0.256-0.536-0.323-0.676c-0.266-0.249-0.837-0.826-1.5-1.619c-0.063,0.018-0.132,0.001-0.19,0.03 c-0.012,0.006-0.176,0.088-0.469,0.221c-2.093,0.95-10.961,4.594-20.988,3.198c-9.235-1.287-12.43-3.545-13.245-4.267 c-0.162-0.144-0.239-0.232-0.24-0.234c-0.236-0.339-0.652-0.5-1.058-0.409c-0.083,0.019-0.326,0.076-0.683,0.162 c-4.269,1.029-26.994,6.838-41.05,16.957c-22.123,15.928-27.067,71.289-27.267,73.639c0,0.004,0.001,0.007,0.001,0.011 c0.038-0.551,0.452-1.007,1.071-0.938c0.378,0.023,0.682,0.258,0.837,0.576l0.828-0.402l28.543-13.837c0,0-0.001-0.001-0.001-0.001 c-0.014-0.028-0.012-0.059-0.023-0.087c-0.024-0.063-0.039-0.126-0.05-0.194c-0.011-0.069-0.017-0.134-0.014-0.202 c0.001-0.031-0.011-0.059-0.006-0.091c0.731-5.557,1.526-12.06,1.526-12.062l1.006,0.123l0-0.001v0.001l1.008,0.123 c0,0-0.629,5.158-1.283,10.216l13.161-6.379c1.502-1.734,13.491-15.498,20.149-20.104c3.759-2.604,18.013-7.241,22.272-7.546 c1.978-0.139,17.329-0.345,20.185,2.798c0.545,0.602,0.866,1.536,0.856,2.501c-0.01,1.12-0.458,2.134-1.256,2.859 c-0.6,0.543-1.984,0.923-3.644,1.189c3.922,1.007,7.643,2.683,8.03,5.446c0.216,1.542-0.347,2.519-0.856,3.066 c-0.666,0.715-1.583,1.092-2.435,1.288c0.711,0.949,1.33,2.249,1.082,3.733c-0.327,1.958-2.001,2.85-3.597,3.186 c0.491,1.062,0.719,2.463,0.014,3.951c-0.747,1.571-2.725,3.309-7.845,2.671c-2.212-0.275-9.04-0.573-11.048-0.656 c-1.332,1.906-6.468,8.913-12.032,11.898c-3.763,2.019-7.259,2.348-8.578,2.398c-2.479,3.336-18.291,24.057-34.646,32.812 c-0.679,0.363-1.359,0.703-2.039,1.023l-0.426,44.254l-0.017,1.789c-0.003,0.306,0.156,0.57,0.385,0.762 c0.049,0.042,0.079,0.102,0.137,0.134c3.782,2.106,7.676,3.992,11.653,5.679c0.181,0.077,0.363,0.152,0.545,0.228 c1.616,0.676,3.244,1.324,4.887,1.93c0.161,0.059,0.319,0.124,0.48,0.183c1.561,0.568,3.137,1.096,4.72,1.6 c0.613,0.195,1.228,0.386,1.844,0.572c1.207,0.364,2.42,0.709,3.638,1.035c0.908,0.244,1.82,0.474,2.734,0.697 c1.026,0.25,2.054,0.49,3.086,0.714c0.772,0.167,1.544,0.332,2.319,0.485c1.469,0.289,2.943,0.557,4.423,0.792 c0.658,0.105,1.319,0.191,1.978,0.285c1.204,0.172,2.411,0.325,3.62,0.461c0.564,0.063,1.126,0.134,1.691,0.189 c1.697,0.167,3.399,0.293,5.103,0.389c0.46,0.026,0.92,0.045,1.38,0.066c1.845,0.084,3.692,0.141,5.543,0.141 c1.881,0,3.755-0.058,5.626-0.143c0.525-0.024,1.05-0.055,1.574-0.085c1.494-0.087,2.984-0.2,4.469-0.341 c0.401-0.038,0.804-0.067,1.205-0.109c1.829-0.191,3.651-0.424,5.465-0.697c0.387-0.058,0.772-0.128,1.159-0.19 c1.501-0.24,2.997-0.508,4.486-0.803c0.428-0.085,0.856-0.169,1.284-0.258c3.71-0.777,7.376-1.725,10.992-2.841 c0.192-0.059,0.383-0.122,0.575-0.182c1.794-0.563,3.576-1.165,5.342-1.811c0.011-0.004,0.023-0.008,0.034-0.012 c8.681-3.177,17.02-7.331,24.854-12.448c0.073-0.048,0.114-0.125,0.171-0.189c0.172-0.191,0.294-0.422,0.288-0.685L557.922,326.364z" fill="#f58e6d"/></g><g id="change3_1"><path d="M281.354,245.591l7.632,7.632c-1.07,1.63-2.01,3.322-2.883,5.044H138.599l0.145-0.715 c-0.653,0.156-1.371,0.262-2.137,0.33c-0.59,0.052-1.2,0.088-1.856,0.088c-3.192,0-7.181-0.628-11.933-1.867 c-0.105-0.027-0.198-0.045-0.303-0.073c-0.534-0.142-1.09-0.31-1.653-0.488l-0.554,2.724H6.338c-3.5,0-6.338-2.838-6.338-6.338 s2.838-6.338,6.338-6.338h60.094c0.064,0.462,0.424,0.836,0.904,0.875c0.149,0.012,8.152,0.028,19.94,0.044 c-4.419-0.565-9.374-1.249-14.57-2.049c-1.389-0.214-2.792-0.437-4.208-0.668c-0.672-0.109-1.342-0.219-2.017-0.332 c-18.417-3.086-38.116-7.572-46.125-13.449c-8.711-6.393-8.965-23.082-0.733-48.267c0.169-0.516,0.294-0.897,0.361-1.123 c0,0,0,0,0-0.001c0.16-0.536,0.723-0.845,1.261-0.684c0.537,0.16,0.844,0.724,0.685,1.261c-0.003,0.009-0.009,0.027-0.012,0.037 c-0.072,0.24-0.196,0.62-0.366,1.141c-7.82,23.923-7.818,40.26,0.005,45.999c15.984,11.729,83.191,18.08,83.869,18.142 c0.137,0.014,0.27,0.054,0.391,0.119c0.102,0.057,10.35,5.614,17.218,7.433c9.877,2.616,16.431,2.483,18.452-0.365 c1.534-2.164,1.054-4.706,1.049-4.732c-0.053-0.266,0.005-0.543,0.158-0.767s0.389-0.378,0.656-0.428 c0.943-0.172,3.521-0.969,4.118-2.544c0.805-2.126-0.297-3.973-0.344-4.05c-0.152-0.248-0.189-0.551-0.104-0.828 s0.284-0.509,0.548-0.628c0.031-0.014,3.026-1.409,3.235-3.886c0.206-2.449-1.522-3.509-1.596-3.555 c-0.256-0.153-0.436-0.412-0.486-0.705c-0.049-0.295,0.03-0.598,0.222-0.826c0.061-0.073,1.584-1.97,0.843-4.863 c-0.579-2.255-2.99-4.169-4.186-5c-1.833,1.649-5.147,2.194-9.122,1.445c-4.706-0.884-6.745-4.284-7.392-5.669 c-9.064-1.385-18.739,1.994-18.837,2.027c-0.187,0.067-0.393,0.081-0.588,0.028l-49.963-12.585 c-0.265-0.065-0.491-0.236-0.629-0.472c-0.138-0.238-0.173-0.519-0.101-0.783l2.795-10.104c0.001-0.004,0.005-0.007,0.006-0.012 c0.001-0.003,0-0.007,0.001-0.01l0.01-0.032l0.293-0.972l11.402-37.848c0.161-0.536,0.725-0.843,1.263-0.679 c0.537,0.161,0.841,0.727,0.679,1.263l-4.335,14.39l-7.363,24.441c0,0,0,0.001,0,0.002l-0.005,0.019l-2.513,9.083l6.736,1.697 l2.011,0.507l39.918,10.055c1.749-0.581,10.62-3.304,19.317-2.037c0.266,0.039,0.532,0.069,0.798,0.115 c0.366,0.063,0.667,0.321,0.786,0.674c0.011,0.032,0.094,0.236,0.224,0.505c0.529,1.096,2.146,3.707,5.864,4.406 c3.5,0.656,6.459,0.163,7.645-1.248c0.036-0.043,0.086-0.078,0.119-0.123c0.306-0.418,0.881-0.537,1.33-0.275 c0.039,0.023,0.29,0.178,0.621,0.4c1.319,0.885,4.398,3.223,5.185,6.292c0.679,2.647-0.083,4.704-0.683,5.802 c0.837,0.801,1.963,2.356,1.755,4.821c-0.221,2.62-2.289,4.294-3.518,5.067c0.306,0.804,0.612,2.046,0.413,3.473 c-0.063,0.451-0.17,0.919-0.352,1.4c-0.085,0.224-0.198,0.429-0.316,0.629c12.33,0.012,23.195,0.022,30.017,0.027h0.001 c0.269,0,0.527-0.107,0.717-0.297s0.297-0.448,0.297-0.717v-0.001H281.354z M298.645,91.384c0.828,3.59-0.345,6.633-3.805,9.866 c-4.019,3.755-11.656,7.471-13.87,8.506c-0.076,9.112-5.127,50.777-11.961,64.065c-4.533,8.813-16.062,16.752-28.799,16.753 c-1.639,0-3.296-0.131-4.963-0.409c-13.613-2.268-30.473-8.886-30.885-9.048l0.019,0.007c0.518,0.176,1.076-0.084,1.273-0.592 l0.369-0.949c3.714,1.415,17.876,6.635,29.557,8.581c13.707,2.281,26.841-5.969,31.624-15.269 c6.893-13.403,11.935-56.375,11.732-63.757c-0.011-0.409,0.225-0.785,0.598-0.953c0.051-0.023,2.81-1.276,6.027-3.061 c-0.323,0.037-0.65,0.085-0.956,0.085c-0.728,0-1.404-0.108-2.007-0.343c-3.054-1.188-3.734-3.735-3.655-5.56 c-1.547-0.25-2.801-0.992-3.57-2.199c-0.884-1.389-1.017-3.194-0.47-5.095c-1.451-0.152-2.763-0.735-3.68-1.745 c-0.799-0.88-1.89-2.796-1.049-6.107c-2.003-0.473-3.559-2.007-4.111-4.2c-0.263-1.043-0.266-2.09-0.046-3.06 c-0.902,0.523-1.771,1.042-2.605,1.552c1.057,2.974,2.348,4.817,3.712,6.743c1.36,1.922,2.768,3.91,3.813,7.014 c1.816,5.392,0.969,10.929,0.931,11.162c-0.079,0.499-0.51,0.856-1.001,0.856c-0.053,0-0.105-0.004-0.159-0.013 c-0.554-0.087-0.931-0.606-0.844-1.16c0.008-0.052,0.802-5.29-0.85-10.196c-0.95-2.823-2.211-4.603-3.547-6.49 c-1.5-2.118-3.053-4.31-4.249-8.045c-0.006-0.02-0.001-0.039-0.007-0.059c-0.004-0.015-0.017-0.027-0.02-0.042 c-0.018-0.084-1.768-8.39-3.524-11.942c-1.182-2.389-3.134-3.196-4.557-2.938c-0.931,0.17-1.536,0.759-1.615,1.574 c-0.171,1.757,0.371,7.933,0.894,13.907c0.387,4.426,0.788,9.002,0.941,12.188c0.419,8.734,1.315,13.819,1.324,13.869 c0.033,0.182,0.015,0.371-0.053,0.544l-15.742,40.8c-0.1,0.261-0.304,0.469-0.564,0.574c-0.259,0.107-0.551,0.101-0.805-0.017 l-15.892-7.265l0.39-1.002c0.184-0.474-0.01-1.01-0.454-1.255c-0.001-0.001-0.027-0.015-0.031-0.017l15.85,7.246l15.254-39.534 c-0.196-1.195-0.929-6.034-1.305-13.846c-0.151-3.146-0.55-7.702-0.936-12.108c-0.555-6.344-1.08-12.338-0.891-14.281 c0.166-1.716,1.45-3.041,3.269-3.374c2.174-0.397,5.091,0.699,6.742,4.034c1.431,2.894,2.79,8.427,3.382,11.025 c5.005-3.029,19.047-11.092,22.971-8.657c2.647,1.644,2.957,4.256,2.892,5.722c1.051,0.271,2.588,0.998,3.528,2.939 c0.842,1.739,0.616,3.355,0.251,4.445c1.002,0.274,2.264,0.921,3.103,2.436c0.963,1.738,0.824,3.59,0.604,4.684 C297.063,88.43,298.186,89.397,298.645,91.384z M271.484,82.299c3.615,0,13.272-4.162,15.158-8.312 c0.089-0.48,0.448-3.076-1.872-4.517c-1.705-1.059-8.272,1.742-14.699,5.174c-0.072,0.076-0.147,0.15-0.244,0.203 c-1.79,0.962-2.186,3.068-1.795,4.617C268.198,80.129,268.941,82.299,271.484,82.299z M276.99,89.869 c3.288-0.843,11.78-5.659,13.092-8.61c0.017-0.039,0.05-0.065,0.072-0.101c0.012-0.021,0.009-0.047,0.022-0.067 c0.047-0.068,1.212-1.831,0.258-3.801c-0.629-1.298-1.638-1.734-2.261-1.882c-2.636,4.489-11.561,8.413-15.907,8.87 c-0.595,1.997-0.467,3.602,0.46,4.623C273.647,89.918,275.325,90.301,276.99,89.869z M280.075,97.392 c5.072,0,13.07-6.093,13.959-9.101c0.004-0.014,0.015-0.024,0.02-0.038c0.004-0.012,0-0.024,0.005-0.036 c0.006-0.018,0.777-2.149-0.22-3.946c-0.626-1.132-1.645-1.451-2.258-1.544c-2.381,3.765-10.957,8.305-14.085,9.108 c-0.14,0.036-0.279,0.053-0.419,0.081c-0.615,1.575-0.639,3.083,0.009,4.1C277.657,96.916,278.692,97.392,280.075,97.392z M295.384,97.615c1.69-2.32,1.66-4.144,1.283-5.775c-0.241-1.044-0.736-1.608-1.155-1.916c-2.084,3.828-9.27,8.901-14.55,9.438 c-0.056,0.996,0.183,2.76,2.371,3.611C285.814,103.93,291.419,101.436,295.384,97.615z M77.328,56.934 c0-7.359,4.929-13.578,11.655-15.556c-2.276-10.975-2.525-23.366,3.821-30.227c9.72-10.511,27.63-11.077,28.387-11.096 c0.005,0,0.008,0.003,0.013,0.003c2.143-0.097,4.24-0.064,6.209,0.059c13.32,0.829,18.216,5.459,21.394,12.165 c0.616,0.5,1.213,1.014,1.745,1.566c4.708,4.894,4.106,12.882,3.81,15.213c-0.489,3.85-1.257,7.59-1.935,10.89 c-0.189,0.922-0.371,1.81-0.541,2.665c5.12,2.731,8.615,8.122,8.615,14.318c0,6.627-3.999,12.33-9.706,14.845 c-0.713,2.06-1.786,4.079-3.392,5.991c-2.431,2.893-5.49,5.084-8.931,6.466v2.591l-0.165-0.253c-0.173-0.265-0.46-0.433-0.775-0.456 c-0.314-0.024-0.624,0.102-0.833,0.339l-0.256,0.288v-1.807c-1.567,0.465-3.193,0.783-4.87,0.917 c-0.61,0.049-1.26,0.077-1.945,0.077c-5.114,0-12.179-1.579-19.659-8.047c-0.424-0.367-0.47-1.008-0.104-1.432 c0.369-0.425,1.008-0.469,1.432-0.104c7.952,6.878,15.334,7.871,20.116,7.484c5.7-0.455,10.828-3.072,14.437-7.369 c5.256-6.257,4.341-13.766,3.532-20.391c-0.309-2.53-0.6-4.919-0.496-7.002c0.13-2.593,0.79-5.807,1.554-9.529 c0.647-3.156,1.374-6.722,1.855-10.364l-3.227-4.741c-1.173,2.409-3.704,6.445-7.576,6.709c-1.466,0.098-2.31-0.569-2.746-1.147 c-0.772-1.026-0.915-2.61-0.776-4.227c-1.861,2.291-4.363,4.418-7.05,4.157c-1.25-0.129-2.243-0.713-2.87-1.692 c-0.543-0.848-0.761-1.912-0.798-2.993c-2.189,3.164-5.37,6.827-8.408,6.901c-1.219,0.031-2.262-0.391-3.107-1.25 c-0.511-0.519-0.905-1.162-1.209-1.856c-2.175,7.563-7.114,15.512-8.458,17.595c2.31,2.804,3.7,6.393,3.7,10.301 c0,3.775-1.307,7.245-3.478,10.004c0.35,0.647,4.852,8.412,17.464,9.099c-0.001,0.036-0.013,0.069-0.013,0.105 c0,0.691,0.176,1.346,0.469,1.954c-12.424-0.467-17.883-7.34-19.33-9.577c-0.762,0.745-1.597,1.413-2.493,1.998v11.391l-0.506-0.293 c-0.429-0.248-0.974-0.151-1.29,0.231l-0.233,0.281V71.636c-2.075,0.965-4.377,1.52-6.812,1.52 C84.605,73.155,77.328,65.879,77.328,56.934z M151.489,44.73c-0.295,1.653-0.511,3.152-0.575,4.441 c-0.096,1.908,0.185,4.214,0.484,6.655c0.494,4.054,1.052,8.708,0.125,13.29c4.153-2.479,6.95-7.005,6.95-12.183 C158.472,51.742,155.661,47.205,151.489,44.73z M99.953,12.534c-4.717,8.003-5.306,24.144-5.379,28.23 c2.043,0.129,3.981,0.632,5.751,1.45c-0.041-5.343,0.469-21.409,7.669-29.623c3.476-3.966,10.529-6.449,18.87-6.643 c6.905-0.165,13.297,1.27,18.237,3.913c-3.018-4.338-7.784-7.095-17.814-7.719C117.962,1.558,105.638,2.891,99.953,12.534z M79.357,56.934c0,7.825,6.367,14.192,14.192,14.192s14.192-6.367,14.192-14.192s-6.367-14.192-14.192-14.192 S79.357,49.108,79.357,56.934z M128.327,71.025c-1.232-1.155-1.751-2.596-1.959-3.678c3.963,1.462,9.622,1.714,12.356,1.744 c-0.599,1.109-1.68,2.61-3.388,3.348c0.541,0.465,0.995,0.998,1.307,1.594c2.518-1.335,4.04-3.903,4.605-5.652 c0.102-0.314,0.045-0.657-0.153-0.92c-0.197-0.263-0.52-0.416-0.84-0.406c-0.103,0.008-10.062,0.242-14.55-2.221 c-0.306-0.167-0.676-0.165-0.98,0.002c-0.304,0.168-0.501,0.482-0.521,0.829c-0.092,1.578,0.369,4.169,2.14,6.224 C126.936,71.513,127.601,71.223,128.327,71.025z M143.42,43.672l-0.194,4.179c-0.026,0.56,0.407,1.035,0.966,1.061 c0.017,0.001,0.033,0.001,0.049,0.001c0.538,0,0.987-0.424,1.013-0.967l0.194-4.179c0.026-0.56-0.407-1.035-0.966-1.061 C143.894,42.666,143.446,43.113,143.42,43.672z M126.544,42.632l-0.194,4.179c-0.026,0.56,0.407,1.035,0.966,1.061 c0.017,0.001,0.033,0.001,0.049,0.001c0.538,0,0.987-0.424,1.013-0.967l0.194-4.179c0.026-0.56-0.407-1.035-0.966-1.061 C127.001,41.628,126.57,42.074,126.544,42.632z M135.195,59.26c-0.557-0.041-1.031,0.411-1.057,0.97 c-0.025,0.56,0.41,1.033,0.97,1.057c0.179,0.008,0.356,0.012,0.529,0.012c2.343,0,4.167-0.701,5.052-1.954 c0.514-0.727,0.965-1.993,0.197-3.889c-2.794-6.902-2.197-10.668-2.189-10.714c0.098-0.549-0.266-1.075-0.814-1.176 c-0.555-0.11-1.081,0.262-1.182,0.813c-0.032,0.172-0.744,4.307,2.305,11.837c0.34,0.841,0.349,1.5,0.026,1.958 C138.503,58.922,137.037,59.331,135.195,59.26z M147.974,39.185c0.261,0,0.521-0.1,0.719-0.299c0.395-0.397,0.393-1.04-0.004-1.435 c-2.75-2.734-7.282-1.839-7.471-1.797c-0.548,0.113-0.9,0.648-0.788,1.196c0.113,0.549,0.649,0.907,1.195,0.792 c0.039-0.006,3.663-0.708,5.633,1.248C147.457,39.087,147.716,39.185,147.974,39.185z M131.877,36.682 c0.304-0.471,0.169-1.099-0.301-1.403c-0.161-0.103-4.031-2.523-10.218,0.656c-0.498,0.257-0.695,0.868-0.439,1.366 c0.18,0.35,0.535,0.551,0.904,0.551c0.156,0,0.314-0.036,0.463-0.112c5.069-2.604,8.06-0.836,8.196-0.752 C130.951,37.289,131.574,37.152,131.877,36.682z M145.294,100.198l-0.18,0.481l-3.971,10.594L129.292,97.87l-0.595-0.673 c-0.228-0.259-0.571-0.381-0.915-0.331c-0.342,0.053-0.632,0.275-0.773,0.591l-0.37,0.833l-6.999,15.756l-27.798-18.45l-0.94-0.624 c-0.468-0.312-1.098-0.182-1.406,0.284c-0.31,0.467-0.182,1.096,0.284,1.406l0.357,0.237l29.382,19.502 c0.167,0.112,0.364,0.169,0.561,0.169c0.095,0,0.19-0.013,0.283-0.041c0.287-0.083,0.522-0.289,0.644-0.562l7.215-16.244 l12.517,14.157c0.235,0.267,0.594,0.391,0.944,0.326c0.35-0.064,0.641-0.308,0.766-0.642l4.428-11.813l0.316-0.843 c0.196-0.524-0.069-1.109-0.594-1.306C146.079,99.408,145.49,99.671,145.294,100.198z M430.294,330.906 c-16.379-9.444-30.346-22.602-40.736-38.337h-2.409c10.922,16.933,25.876,31.021,43.512,40.888 c-0.229-0.192-0.388-0.456-0.385-0.762L430.294,330.906z M613.3,226.178c0,42.938-22.157,80.778-55.621,102.751 c0.172-0.191,0.294-0.422,0.288-0.685l-0.045-1.88c32.162-21.733,53.349-58.531,53.349-100.186 c0-54.18-35.846-100.143-85.067-115.425c-0.673,3.915-1.78,7.499-2.84,10.328c0.124,0.065,0.253,0.142,0.379,0.212 c0.684,0.38,1.389,0.824,2.103,1.324c3.911,2.736,8.018,7.01,9.519,10.046c1.293,2.612,1.46,10.378,1.36,16.648 c-0.012,0.77-0.029,1.505-0.048,2.218c-0.073,2.769-0.181,5.024-0.234,6.017c2.64,3.707,29.625,41.724,46.301,69.62 c6.28,10.503,7.34,20.498,2.986,28.149c-3.706,6.512-10.919,10.552-18.833,10.552c-0.022,0-0.042,0-0.063,0 c-3.853-0.01-7.4-0.989-10.439-2.79c-0.717-0.425-1.408-0.891-2.065-1.406c-2.02-1.587-3.746-3.59-5.085-5.974 c-10.546-18.766-31.956-62.998-39.987-79.708c-5.667,3.621-13.481,5.569-21.805,5.569c-4.045,0-8.2-0.454-12.28-1.39 c-9.706-2.227-14.185-7.269-15.535-9.103c-0.28-0.38-0.435-0.632-0.464-0.682c-0.283-0.483-0.123-1.101,0.359-1.386 c0.48-0.283,1.102-0.124,1.389,0.355c0.01,0.016,0.267,0.434,0.818,1.087c1.624,1.923,5.818,5.9,13.888,7.752 c12.075,2.769,24.797,1.175,32.753-4.031c-0.846-1.763-1.483-3.093-1.859-3.881c-0.14-0.293-0.256-0.536-0.323-0.676 c-0.266-0.249-0.837-0.826-1.5-1.619c-0.063,0.018-0.132,0.001-0.19,0.03c-0.012,0.006-0.176,0.088-0.469,0.221l0.127-0.903 c-0.399-0.519-0.807-1.126-1.207-1.784c-0.339-0.557-0.654-1.161-0.949-1.804c-0.695-1.515-1.229-3.231-1.293-5.116 c-0.18-5.241-0.634-16.302-0.735-18.729l-5.559-4.218l-1.329-1.009c-0.167-0.126-0.267-0.306-0.33-0.499 c-0.036-0.11-0.076-0.22-0.072-0.339c0.063-2.162,1.274-4.119,3.24-5.234c1.415-0.801,3.607-1.104,4.613-1.206 c0.483-0.66,1.536-1.832,3.258-2.484c0.175-0.066,0.338-0.102,0.508-0.154c0.087-1.006,0.233-2.13,0.451-3.396 c-1.286-0.427-3.646-1.495-6.258-4.069c-2.461-2.429-3.24-6.389-3.476-9.078c-2.108,2.23-6.038,5.19-11.646,4.523 c-6.27-0.747-8.989-5.494-10.023-8.102c-3.779,3.553-7.944,4.386-10.871,3.405c0.068,2.64,0.227,5.207,0.376,7.55 c0.244,3.79,0.454,7.063,0.224,9.649c-0.184,2.077-0.803,4.403-1.458,6.866c-1.714,6.449-3.66,13.759,0.684,20.683 c2.982,4.755,7.699,8.054,13.281,9.291c3.232,0.714,7.768,0.955,13.162-0.83l0.774,1.862c-3.299,1.108-6.323,1.536-8.956,1.536 c-2.051,0-3.872-0.244-5.418-0.587c-1.642-0.364-3.21-0.903-4.697-1.581l-0.653,4.688c-0.162-0.144-0.239-0.232-0.24-0.234 c-0.236-0.339-0.652-0.5-1.058-0.409c-0.083,0.019-0.326,0.076-0.683,0.162l0.722-5.182c-3.217-1.845-5.945-4.437-7.953-7.638 c-4.811-7.671-2.655-15.773-0.925-22.283c0.632-2.376,1.231-4.621,1.399-6.525c0.216-2.43,0.01-5.632-0.228-9.338 c-0.131-2.061-0.266-4.299-0.346-6.61c-52.185,13.359-90.878,60.777-90.878,117.067c0,1.222,0.056,2.431,0.093,3.645l-1.979,1.979 c-0.084-1.865-0.143-3.738-0.143-5.624c0-57.395,39.567-105.71,92.853-119.137c-0.001-0.053,0-0.106-0.001-0.159 c-2.016-1.759-3.189-5.21-1.101-10.327c-1.266-1.688-4.839-7.245-1.52-12.388c3.185-4.934,8.852-4.248,11.797-3.069 c3.42-1.676,25.767-11.711,45.863,1.027c10.578,6.706,12.205,17.333,11.031,26.604C576.706,124.176,613.3,170.979,613.3,226.178z M520.195,122.023c-1.822-0.325-2.928-0.097-3.592,0.227c4.605,1.848,8.903,6.035,9.103,6.232c0.4,0.393,0.404,1.035,0.012,1.435 c-0.198,0.202-0.462,0.303-0.723,0.303c-0.258,0-0.513-0.097-0.711-0.291c-0.051-0.05-5.142-5.016-9.772-6.253 c-0.649-0.118-2.48-0.288-3.664,0.286c-0.543,0.263-0.951,0.615-1.252,0.947c3.408,1.261,7.952,4.952,8.532,5.429 c0.432,0.356,0.493,0.995,0.137,1.428c-0.2,0.244-0.491,0.37-0.783,0.37c-0.228,0-0.456-0.076-0.646-0.232 c-1.69-1.392-6.601-5.073-8.981-5.375c-0.023-0.003-0.042-0.017-0.064-0.022c-0.024-0.004-0.047,0.001-0.07-0.005 c-0.01-0.001-1.449-0.356-3.202,0.308c-0.661,0.25-1.181,0.608-1.575,0.955c3.532,1.247,7.781,4.871,8.328,5.347 c0.422,0.368,0.468,1.009,0.099,1.432c-0.2,0.231-0.482,0.349-0.765,0.349c-0.236,0-0.474-0.082-0.666-0.249 c-1.597-1.387-6.28-5.013-8.861-5.259c-0.862,0.066-3.027,0.346-4.149,0.981c-1.187,0.673-1.97,1.781-2.166,3.029l6.823,5.177 c0.242,0.183,0.388,0.464,0.402,0.767c0,0,0.551,13.309,0.755,19.221c0.184,5.388,4.907,9.626,4.954,9.667 c0.101,0.09,0.186,0.201,0.244,0.324c0.299,0.627,30.036,62.96,43.069,86.151c3.254,5.788,9.022,9.117,15.827,9.135 c0.018,0,0.036,0,0.054,0c7.08,0,13.778-3.735,17.074-9.528c3.975-6.985,2.923-16.255-2.963-26.102 c-17.419-29.136-46.13-69.37-46.42-69.773c-0.133-0.187-0.2-0.416-0.186-0.646c0.315-5.623,0.777-20.936-0.852-24.226 C531.584,129.597,524.081,122.717,520.195,122.023z M468.241,121.777l-0.384,4.166c-0.052,0.558,0.359,1.052,0.918,1.104 c0.032,0.003,0.063,0.004,0.095,0.004c0.517,0,0.959-0.395,1.009-0.921l0.384-4.166c0.052-0.558-0.359-1.052-0.918-1.104 C468.802,120.817,468.294,121.219,468.241,121.777z M485.727,128.352c0.517,0,0.959-0.395,1.009-0.921l0.384-4.166 c0.052-0.558-0.359-1.052-0.918-1.104c-0.555-0.056-1.05,0.359-1.104,0.917l-0.384,4.166c-0.052,0.558,0.359,1.052,0.917,1.104 C485.663,128.351,485.695,128.352,485.727,128.352z M476.819,123.593c-0.026-0.558-0.561-1.009-1.052-0.966 c-0.559,0.021-0.995,0.491-0.977,1.049c0.002,0.038,0.079,3.851-3.648,10.308c-1.021,1.773-0.749,3.087-0.341,3.879 c0.755,1.464,2.673,2.447,5.261,2.694c0.034,0.004,0.065,0.005,0.099,0.005c0.515,0,0.957-0.393,1.009-0.918 c0.053-0.558-0.357-1.053-0.914-1.106c-1.833-0.175-3.232-0.791-3.652-1.605c-0.256-0.497-0.157-1.148,0.295-1.934 C476.962,127.961,476.825,123.768,476.819,123.593z M473.076,113.773c-4.918-0.264-7.491,1.946-7.598,2.04 c-0.418,0.369-0.46,1.002-0.095,1.424c0.2,0.231,0.484,0.349,0.767,0.349c0.236,0,0.47-0.08,0.662-0.244 c0.085-0.071,2.14-1.766,6.153-1.542c0.634,0.032,1.04-0.4,1.068-0.959C474.063,114.281,473.635,113.804,473.076,113.773z M477.628,155.021c0.246,0,0.497-0.008,0.755-0.025c3.005-0.197,5.16-1.24,6.717-2.537l-0.825-1.984 c-1.303,1.247-3.209,2.311-6.026,2.496c-5.414,0.372-7.461-3.993-8.172-6.35c4.081,0.706,9.162,0.76,12.875,0.671l-0.839-2.018 c-4.039,0.066-9.382-0.058-13.146-0.947c-0.323-0.074-0.672,0.012-0.918,0.238c-0.248,0.226-0.367,0.559-0.321,0.891 C468.201,148.841,470.878,155.021,477.628,155.021z M504.671,215.836c1.661-0.266,3.044-0.646,3.644-1.189 c0.799-0.725,1.246-1.74,1.256-2.859c0.01-0.965-0.311-1.898-0.856-2.501c-2.856-3.143-18.207-2.937-20.185-2.798 c-4.259,0.305-18.512,4.942-22.272,7.546c-6.658,4.605-18.647,18.37-20.149,20.104l-13.161,6.379 c0.654-5.058,1.283-10.216,1.283-10.216l-1.008-0.123h0l-1.006-0.123c0,0.002-0.795,6.506-1.526,12.062 c-0.004,0.031,0.008,0.06,0.006,0.091c-0.002,0.069,0.003,0.136,0.014,0.202c0.011,0.068,0.026,0.131,0.05,0.194 c0.011,0.029,0.009,0.059,0.023,0.087c0,0,0,0.001,0.001,0.001c0.015,0.031,0.042,0.05,0.06,0.079 c0.037,0.061,0.078,0.115,0.127,0.166c0.043,0.045,0.089,0.087,0.14,0.124c0.052,0.038,0.106,0.068,0.165,0.096 c0.062,0.029,0.128,0.052,0.197,0.068c0.032,0.007,0.058,0.027,0.091,0.031c0.046,0.006,0.089,0.008,0.135,0.008 c0.008,0,0.014-0.004,0.022-0.004c0.055-0.001,0.105-0.019,0.157-0.029c0.076-0.014,0.151-0.027,0.221-0.058 c0.013-0.006,0.027-0.004,0.04-0.011l15.043-7.29c0.125-0.061,0.236-0.147,0.327-0.252c0.131-0.153,13.156-15.253,19.902-19.919 c3.398-2.352,17.401-6.914,21.265-7.189c5.19-0.378,16.86,0.289,18.536,2.136c0.16,0.178,0.333,0.604,0.329,1.118 c-0.004,0.386-0.109,0.939-0.591,1.373c-0.79,0.717-6.538,1.237-11.429,1.276c-6.25-0.581-10.924-0.26-17.832,1.229 c-0.547,0.119-0.896,0.658-0.779,1.207c0.103,0.476,0.523,0.801,0.991,0.801c0.071,0,0.145-0.008,0.216-0.022 c6.789-1.464,11.149-1.768,17.272-1.189c0.004,0,0.007-0.002,0.011-0.001c0.004,0,0.008,0.003,0.012,0.003 c6.105,0.432,14.882,2.309,15.276,5.119c0.115,0.812-0.133,1.187-0.329,1.399c-0.697,0.753-2.288,0.853-2.966,0.839 c-5.906-2.928-19.396-4.596-27.113-2.371c-0.537,0.155-0.848,0.717-0.694,1.256c0.155,0.537,0.707,0.852,1.256,0.694 c0.998-0.287,2.115-0.498,3.302-0.651c6.087-0.784,14.167,0.108,19.449,1.763c1.163,0.364,2.2,0.761,3.037,1.189 c0.642,0.482,2.095,1.917,1.855,3.355c-0.238,1.424-2.412,1.617-3.134,1.646c-4.069-2.674-13.556-3.773-22.391-2.554 c-0.555,0.077-0.943,0.589-0.866,1.143c0.075,0.555,0.591,0.935,1.143,0.866c8.419-1.164,17.699-0.127,21.187,2.356 c0.221,0.222,1.41,1.531,0.645,3.143c-0.83,1.754-3.595,1.797-5.759,1.528c-2.675-0.335-11.408-0.678-11.779-0.694 c-0.363-0.006-0.688,0.157-0.884,0.452c-0.057,0.085-5.745,8.553-11.628,11.709c-4.175,2.239-8.081,2.15-8.107,2.162 c-0.333,0.008-0.652,0.147-0.85,0.416c-0.244,0.337-24.721,33.636-44.331,36.145c-6.197,0.791-10.816-0.337-14.145-3.448 c-4.805-4.492-6.845-13.4-6.062-26.477c0.011-0.181-0.04-0.346-0.114-0.498c-0.155-0.318-0.459-0.553-0.837-0.576 c-0.619-0.069-1.033,0.387-1.071,0.938c0,0.005-0.003,0.009-0.003,0.013c-0.318,5.312-0.187,9.924,0.385,13.887h0.423 c0.561,0,1.015,0.454,1.015,1.015v5.124c1.137,3.365,2.745,6.061,4.879,8.055c3.01,2.816,7.035,4.231,11.995,4.231 c1.209,0,2.473-0.083,3.793-0.252c2.86-0.366,5.793-1.336,8.726-2.716c0.68-0.32,1.36-0.66,2.039-1.023 c16.356-8.755,32.167-29.475,34.646-32.812c1.32-0.05,4.815-0.378,8.578-2.398c5.564-2.984,10.701-9.991,12.032-11.898 c2.007,0.083,8.836,0.38,11.048,0.656c5.121,0.638,7.098-1.1,7.845-2.671c0.705-1.488,0.478-2.889-0.014-3.951 c1.595-0.337,3.27-1.229,3.597-3.186c0.248-1.484-0.371-2.784-1.082-3.733c0.852-0.196,1.77-0.573,2.435-1.288 c0.509-0.547,1.072-1.524,0.856-3.066C512.314,218.519,508.593,216.843,504.671,215.836z" fill="#231f20"/></g><g id="change4_1"><path d="M149.259,302.076c-2.315,11.384-11.215,20.052-22.674,22.083c-0.059,0.01-0.119,0.016-0.177,0.016 c-0.271,0-0.534-0.109-0.726-0.307c-0.235-0.24-0.335-0.581-0.268-0.91l5.025-24.711c0.981-4.827-2.147-9.553-6.974-10.534 c-2.341-0.48-4.723-0.012-6.712,1.304c-1.99,1.318-3.348,3.331-3.824,5.669l-5.025,24.711c-0.066,0.329-0.292,0.604-0.601,0.733 c-0.312,0.131-0.666,0.097-0.945-0.085c-9.756-6.347-14.563-17.803-12.247-29.185c2.43-11.953,12.069-20.837,24.108-22.319 l2.09-10.274l0.554-2.724c0.563,0.179,1.119,0.347,1.653,0.488c0.105,0.028,0.198,0.046,0.303,0.073 c4.751,1.239,8.741,1.867,11.933,1.867c0.656,0,1.267-0.036,1.856-0.088c0.766-0.068,1.484-0.174,2.137-0.33l-0.145,0.715 l-2.816,13.845C146.287,278.178,151.691,290.121,149.259,302.076z M131.869,201.425l-2.688,13.217 c0.266,0.039,0.532,0.069,0.798,0.115c0.366,0.063,0.667,0.321,0.786,0.674c0.011,0.032,0.094,0.236,0.224,0.505 c0.529,1.096,2.146,3.707,5.864,4.406c3.5,0.656,6.459,0.163,7.645-1.248c0.036-0.043,0.086-0.078,0.119-0.123 c0.306-0.418,0.881-0.537,1.33-0.275c0.039,0.023,0.29,0.178,0.621,0.4l2.867-14.097c12.038-1.482,21.678-10.366,24.108-22.319 c2.317-11.382-2.491-22.839-12.246-29.185c-0.28-0.185-0.637-0.219-0.945-0.085c-0.309,0.129-0.535,0.404-0.601,0.733l-5.025,24.71 c-0.983,4.827-5.712,7.954-10.535,6.975c-2.338-0.477-4.352-1.834-5.669-3.825c-1.317-1.99-1.78-4.373-1.305-6.712l5.025-24.71 c0.067-0.329-0.033-0.67-0.268-0.911c-0.233-0.24-0.566-0.351-0.904-0.29c-11.459,2.031-20.359,10.699-22.674,22.083 C115.962,183.416,121.365,195.36,131.869,201.425z M500.716,158.63c-0.18-5.241-0.634-16.302-0.735-18.729l-5.559-4.218 l-1.329-1.009c-0.167-0.126-0.267-0.306-0.33-0.499l-10.273,4.272c-0.731,0.305-1.302,0.876-1.605,1.609 c-0.303,0.734-0.301,1.542,0.004,2.273l1.224,2.945l0.839,2.018l1.323,3.183l0.825,1.984l3.655,8.792l0.774,1.862l1.703,4.096 c0.305,0.732,0.876,1.303,1.611,1.605c0.365,0.151,0.749,0.226,1.132,0.226c0.386,0,0.773-0.076,1.141-0.229l7.842-3.261 c-0.339-0.557-0.654-1.161-0.949-1.804C501.314,162.231,500.78,160.515,500.716,158.63z M545.334,144.714l-10.344-24.88 c-0.305-0.732-0.876-1.303-1.611-1.605c-0.731-0.303-1.54-0.301-2.273,0.003l-7.364,3.062c0.684,0.38,1.389,0.824,2.103,1.324 c3.911,2.736,8.018,7.01,9.519,10.046c1.293,2.612,1.46,10.378,1.36,16.648c-0.012,0.77-0.029,1.505-0.048,2.218l7.056-2.934 C545.243,147.967,545.962,146.225,545.334,144.714z M401.327,272.209v5.124v14.22c0,0.561-0.454,1.015-1.015,1.015h-10.754h-2.409 h-3.177c-1.336,6.44-3.834,12.478-7.439,17.971l11.551,11.551c0.396,0.396,0.396,1.038,0,1.435l-13.679,13.681 c-0.38,0.38-1.054,0.38-1.435,0l-11.551-11.551c-5.491,3.603-11.527,6.101-17.971,7.437v16.342c0,0.561-0.454,1.015-1.015,1.015 h-19.347c-0.561,0-1.015-0.454-1.015-1.015v-16.342c-6.444-1.336-12.48-3.834-17.97-7.437l-11.551,11.551 c-0.19,0.19-0.448,0.297-0.717,0.297s-0.527-0.107-0.717-0.297l-13.68-13.681c-0.396-0.396-0.396-1.038,0-1.435l11.551-11.551 c-3.605-5.493-6.104-11.531-7.439-17.971h-16.341c-0.561,0-1.015-0.454-1.015-1.015v-19.345c0-0.561,0.454-1.015,1.015-1.015h16.341 c0.939-4.529,2.486-8.846,4.556-12.927c0.874-1.722,1.814-3.414,2.883-5.044l-7.632-7.632l-3.919-3.919 c-0.19-0.19-0.297-0.448-0.297-0.717s0.107-0.527,0.297-0.717l13.68-13.679c0.396-0.396,1.038-0.396,1.435,0l11.551,11.551 c5.488-3.605,11.526-6.103,17.97-7.439V214.33c0-0.561,0.454-1.015,1.015-1.015h19.347c0.561,0,1.015,0.454,1.015,1.015v16.341 c6.444,1.336,12.482,3.834,17.971,7.439l6.308-6.308l1.979-1.979l3.264-3.264c0.396-0.396,1.038-0.396,1.435,0l13.679,13.679 c0.396,0.396,0.396,1.038,0,1.435l-11.551,11.551c3.605,5.493,6.103,11.531,7.439,17.971h15.917h0.423 C400.873,271.195,401.327,271.648,401.327,272.209z M332.759,262.067c-10.925,0-19.814,8.89-19.814,19.814 c0,10.927,8.89,19.816,19.814,19.816c10.927,0,19.816-8.89,19.816-19.816C352.575,270.957,343.685,262.067,332.759,262.067z M282.748,341.053c0.099,0.25,0.095,0.529-0.012,0.777l-6.646,15.417c-0.223,0.513-0.821,0.753-1.333,0.529l-12.918-5.568 c-3.252,4.613-7.28,8.525-11.99,11.646l5.198,13.077c0.206,0.521-0.048,1.11-0.569,1.318l-15.601,6.203 c-0.12,0.048-0.248,0.071-0.375,0.071c-0.137,0-0.273-0.028-0.401-0.083c-0.248-0.107-0.442-0.307-0.542-0.557l-5.198-13.077 c-5.568,0.963-11.181,0.886-16.713-0.234l-5.569,12.918c-0.222,0.513-0.823,0.751-1.333,0.529l-15.418-6.646 c-0.248-0.107-0.442-0.307-0.542-0.557c-0.099-0.25-0.095-0.529,0.012-0.777l5.569-12.916c-4.613-3.252-8.525-7.281-11.647-11.991 l-13.077,5.198c-0.521,0.2-1.111-0.048-1.318-0.569l-6.202-15.601c-0.206-0.521,0.048-1.11,0.569-1.318l13.076-5.198 c-0.965-5.568-0.886-11.182,0.236-16.713l-12.918-5.57c-0.515-0.222-0.752-0.818-0.53-1.334l6.646-15.417 c0.222-0.513,0.815-0.757,1.333-0.529l12.918,5.568c3.254-4.613,7.282-8.527,11.99-11.646l-5.198-13.077 c-0.206-0.521,0.048-1.11,0.569-1.318l15.601-6.203c0.25-0.099,0.529-0.095,0.776,0.012c0.248,0.107,0.442,0.307,0.542,0.557 l5.198,13.077c5.57-0.965,11.186-0.884,16.713,0.236l5.569-12.92c0.106-0.246,0.306-0.442,0.557-0.541 c0.249-0.099,0.53-0.095,0.776,0.012l15.418,6.646c0.515,0.222,0.752,0.818,0.53,1.334l-5.568,12.918 c4.611,3.25,8.523,7.277,11.646,11.989l13.076-5.198c0.518-0.202,1.11,0.048,1.318,0.569l6.203,15.601 c0.206,0.521-0.048,1.11-0.569,1.318l-13.077,5.2c0.966,5.566,0.887,11.18-0.235,16.713l12.918,5.568 C282.454,340.603,282.648,340.803,282.748,341.053z M218.343,310.074c-4.235,1.682-7.561,4.914-9.365,9.1 c-1.804,4.185-1.872,8.824-0.187,13.059c3.476,8.741,13.413,13.033,22.159,9.551c8.743-3.476,13.028-13.418,9.551-22.159 c-1.683-4.235-4.915-7.562-9.1-9.365c-2.169-0.935-4.459-1.403-6.751-1.403C222.518,308.858,220.384,309.262,218.343,310.074z" fill="#698c85"/></g></svg>